<?xml version="1.0" encoding="UTF-8" standalone="no"?>
<!-- Created with Inkscape (http://www.inkscape.org/) -->

<svg
   width="210mm"
   height="297mm"
   viewBox="0 0 210 297"
   version="1.1"
   id="svg1"
   inkscape:version="1.3.2 (091e20e, 2023-11-25)"
   sodipodi:docname="logo1.svg"
   xmlns:inkscape="http://www.inkscape.org/namespaces/inkscape"
   xmlns:sodipodi="http://sodipodi.sourceforge.net/DTD/sodipodi-0.dtd"
   xmlns="http://www.w3.org/2000/svg"
   xmlns:svg="http://www.w3.org/2000/svg">
  <sodipodi:namedview
     id="namedview1"
     pagecolor="#ffffff"
     bordercolor="#666666"
     borderopacity="1.0"
     inkscape:showpageshadow="2"
     inkscape:pageopacity="0.0"
     inkscape:pagecheckerboard="0"
     inkscape:deskcolor="#d1d1d1"
     inkscape:document-units="mm"
     inkscape:zoom="2.2699069"
     inkscape:cx="444.7319"
     inkscape:cy="557.29158"
     inkscape:window-width="1512"
     inkscape:window-height="857"
     inkscape:window-x="524"
     inkscape:window-y="25"
     inkscape:window-maximized="0"
     inkscape:current-layer="layer3" />
  <defs
     id="defs1" />
  <g
     inkscape:groupmode="layer"
     id="layer3"
     inkscape:label="Cyan-500 BGnd"
     style="display:inline">
    <rect
       style="display:inline;fill:#06b6d4;fill-opacity:1;stroke:none;stroke-width:0.0999996;stroke-dasharray:none;stroke-opacity:1"
       id="rect2"
       width="54.999996"
       height="54.999996"
       x="77.5"
       y="121"
       inkscape:export-filename="public/icon_rev_16x.png"
       inkscape:export-xdpi="7.3890915"
       inkscape:export-ydpi="7.3890915"
       inkscape:label="rect1"
       ry="9.4390001" />
  </g>
  <g
     inkscape:groupmode="layer"
     id="layer4"
     inkscape:label="White"
     style="display:inline">
    <g
       id="SvgjsG2195"
       featurekey="dZL0lc-0"
       transform="matrix(0.58244703,0,0,0.58244703,75.877476,119.37722)"
       fill="#64d7d6"
       inkscape:label="SvgjsG2195"
       style="display:inline;opacity:1;fill:#ffffff;fill-opacity:1"
       inkscape:export-filename="public/icon_128x.png"
       inkscape:export-xdpi="59.112732"
       inkscape:export-ydpi="59.112732">
      <path
         fill-rule="evenodd"
         clip-rule="evenodd"
         d="m 37.854,26.105 c 4.605496,-0.652584 9.428,0.088 13.873,1.506 9.941,3.172 12.788,12.875 6.951,21.616 C 52.836,57.975 39.604,61.906 29.971,57.756 27.1045,56.521 25.66559,55.609029 24.172193,53.810145 22.797966,52.154809 22.310425,50.443558 21.585,47.897093 21.232577,46.659978 21.002245,42.8318 21.589,40.404 c 0.399243,-1.651938 1.258589,-3.21453 2.326,-4.537 2.674537,-3.313622 6.22527,-5.913899 9.882,-8.096 1.255388,-0.749134 2.609542,-1.4609 4.057,-1.666 z"
         id="path1"
         sodipodi:nodetypes="acccasaaaa"
         inkscape:label="path1"
         style="display:inline;fill:#ffffff;fill-opacity:1" />
      <path
         fill-rule="evenodd"
         clip-rule="evenodd"
         d="m 67.94,49.245 c 6.422,0.004 9.633,4.886 6.659,10.807 -3.024,6.023 -8.019,9.765 -15.011,9.989 -6.783,0.217 -9.113,-4.218 -6.999,-10.354 1.981,-5.75 9.281,-10.445 15.351,-10.442 z"
         id="path2"
         style="display:inline;fill:#ffffff;fill-opacity:1;stroke-width:0.999232;stroke-dasharray:none" />
      <path
         fill-rule="evenodd"
         clip-rule="evenodd"
         d="m 74.326,45.595 c -5.795,-0.04 -10.959,-5.349 -10.944,-11.251 0.01,-4.357 3.075,-7.577 7.186,-7.55 5.739,0.039 11.674,6.009 11.645,11.717 -0.022,4.395 -3.055,7.116 -7.887,7.084 z"
         id="path3"
         style="display:inline;fill:#ffffff;fill-opacity:1" />
      <path
         fill-rule="evenodd"
         clip-rule="evenodd"
         d="m 28.151,72.945 c -2.54,-1.036 -4.417,-3.082 -4.375,-6.015 0.041,-2.863 2.01,-4.553 4.556,-5.425 4.971,-1.703 9.95,-1.554 14.65,0.823 2.614,1.323 4.723,3.389 4.095,6.751 -0.636,3.414 -3.49,4.53 -6.349,5.351 -1.381,0.397 -2.913,0.271 -5.0675,0.1715 C 33.506,74.502 30.719,73.992 28.151,72.945 Z"
         id="path4"
         sodipodi:nodetypes="cscccccc"
         style="display:inline;fill:#ffffff;fill-opacity:1" />
      <path
         fill-rule="evenodd"
         clip-rule="evenodd"
         d="m 88.205,52.5 c 5.772,-0.035 8.319,4.093 5.863,8.747 -2.173,4.12 -7.616,6.623 -11.453,5.267 -3.709,-1.311 -5.093,-4.566 -3.344,-8.096 1.913,-3.859 5.203,-5.632 8.934,-5.918 z"
         id="path5"
         style="display:inline;fill:#ffffff;fill-opacity:1" />
      <path
         fill-rule="evenodd"
         clip-rule="evenodd"
         d="m 46.266,87.77 c -1.96108,0.110428 -4.112,-0.884 -5.658,-1.646 -3.387,-1.671 -3.609,-5.446 -0.465,-7.569 3.783,-2.554 7.987,-2.739 12.106,-1.13 3.565,1.392 4.038,5.329 0.839,7.496 -2.075,1.404 -4.361564,2.710453 -6.822,2.849 z"
         id="path6"
         sodipodi:nodetypes="acccca"
         style="display:inline;fill:#ffffff;fill-opacity:1" />
      <path
         fill-rule="evenodd"
         clip-rule="evenodd"
         d="m 57.453,27.11 c -2.933064,-0.07765 -5.713,-1.424 -8.362,-2.749 -2.986,-1.494 -2.787,-4.063 0.091,-5.745 3.72,-2.173 12.656,-1.704 16.048,0.843 2.476,1.857 2.406,4.397 -0.435,5.661 -2.147,0.955 -4.807252,2.057104 -7.342,1.99 z"
         id="path7"
         sodipodi:nodetypes="acccca"
         style="display:inline;fill:#ffffff;fill-opacity:1" />
      <path
         fill-rule="evenodd"
         clip-rule="evenodd"
         d="m 19.711,62.862 c -2.602,1.095 -4.785,-0.288 -6.373,-2.243 -2.035,-2.506 -3.362,-5.387 -2.407,-8.749 1.258,-4.428 5.612,-5.746 8.71,-2.37 1.798,1.958 2.784,4.662 3.1875,7.414 0.4035,2.752 -0.6635,4.914 -3.1175,5.948 z"
         id="path8"
         sodipodi:nodetypes="cccccc"
         style="display:inline;fill:#ffffff;fill-opacity:1" />
      <path
         fill-rule="evenodd"
         clip-rule="evenodd"
         d="m 75.446,15.578 c 2.197796,-0.196793 4.353,1.767 5.882,3.037 0.915,0.759 1.645,2.734 1.288,3.751 -0.365,1.041 -2.194,2.245 -3.323,2.188 -1.999,-0.1 -4.194,-0.742 -5.84,-1.851 -1.147,-0.772 -2.348,-2.96 -2.011,-4.048 0.386,-1.244 2.327458,-2.926881 4.004,-3.077 z"
         id="path9"
         sodipodi:nodetypes="accccca"
         style="display:inline;fill:#ffffff;fill-opacity:1" />
      <path
         fill-rule="evenodd"
         clip-rule="evenodd"
         d="m 16.589,70.245 c -0.14665,1.486277 -1.612,3.255 -2.71,3.568 -1.08,0.307 -3.025,-0.646 -3.847,-1.653 -1.048,-1.285 -1.825,-3.18 -1.823,-4.81 0.002,-1.304 1.066,-3.109 2.191,-3.732 0.768,-0.426 2.856,0.455 3.629,1.366 1.136,1.341 2.751501,3.320162 2.56,5.261 z"
         id="path10"
         sodipodi:nodetypes="accccca"
         style="display:inline;fill:#ffffff;fill-opacity:1" />
      <path
         fill-rule="evenodd"
         clip-rule="evenodd"
         d="M 45.207,17.008 C 43.911472,16.858073 41.941021,16.206781 41.909,14.903 41.87571,13.547606 44,12.86 45.226,12.549 c 1.657,-0.42 3.54,-0.396 5.239,-0.088 1.749,0.317 2.037,1.67 0.427,2.551 -1.597,0.874 -3.68991,2.226885 -5.685,1.996 z"
         id="path11"
         sodipodi:nodetypes="aaccca"
         style="display:inline;fill:#ffffff;fill-opacity:1" />
      <path
         fill-rule="evenodd"
         clip-rule="evenodd"
         d="m 10.555,41.71 c 0.282058,2.432005 -2.276,6.416 -3.938,6.2 -0.639,-0.083 -1.572,-1.251 -1.612,-1.966 -0.132,-2.368 2.467,-5.919 4.086,-5.665 0.689,0.109 1.385384,0.753141 1.464,1.431 z"
         id="path12"
         sodipodi:nodetypes="ascca"
         style="display:inline;fill:#ffffff;fill-opacity:1" />
      <path
         fill-rule="evenodd"
         clip-rule="evenodd"
         d="m 19.22,28.43 c -0.965058,-0.290071 -1.361134,-1.998596 -0.889719,-2.88924 0.30196,-0.570492 0.576917,-0.969064 1.063719,-1.43676 1.454946,-1.397842 3.825917,-3.275316 5.596,-2.307 0.488835,0.267415 0.489127,1.121973 0.297,1.645 -0.902734,2.457512 -3.559739,5.741616 -6.067,4.988 z"
         id="path13"
         sodipodi:nodetypes="assaaa"
         style="display:inline;fill:#ffffff;fill-opacity:1" />
      <path
         fill-rule="evenodd"
         clip-rule="evenodd"
         d="m 37.936808,26.188303 c 0,0 -2.653402,1.260098 -4.058237,1.666006 -1.287336,0.371948 -2.922992,0.821997 -3.959974,0.691994 -1.139,-0.140957 -2.69738,-0.342692 -3.203984,-1.390993 -0.409371,-0.847116 0.117951,-2.112999 0.727998,-2.727012 3.468981,-3.494996 7.694953,-5.515987 12.688927,-5.433988 2.329987,0.03794 2.721404,2.075938 1.558981,3.692988 -0.998875,1.389539 -2.376843,2.815896 -3.754982,3.501005 -3.79e-4,1.89e-4 0.0013,0 0.0013,0 z"
         id="path1-3-7"
         sodipodi:nodetypes="cacaccsscc"
         style="display:inline;opacity:1;fill:#ffffff;fill-opacity:1;stroke-width:1"
         inkscape:label="path14" />
      <path
         fill-rule="evenodd"
         clip-rule="evenodd"
         d="m 21.56156,40.549111 c -0.933468,1.110095 -2.313999,2.109994 -3.474,2.619997 -1.036,0.456008 -2.631,0.829999 -3.42,0.339001 -0.834001,-0.520991 -1.51,-2.166995 -1.378,-3.209991 0.498,-3.950007 2.572999,-7.114003 5.903,-9.304005 2.275999,-1.498007 4.431,-0.314003 4.684,2.431998 0.073,0.802991 0.211486,1.747635 0.01099,2.586003 -0.395289,1.652886 -1.232209,3.236255 -2.32599,4.536997 z"
         id="path1-3-2"
         sodipodi:nodetypes="acccccaa"
         style="display:inline;opacity:1;fill:#ffffff;fill-opacity:1;stroke-width:1"
         inkscape:label="path15" />
    </g>
  </g>
  <g
     inkscape:label="White BGnd"
     inkscape:groupmode="layer"
     id="layer1"
     style="display:none"
     sodipodi:insensitive="true">
    <rect
       style="fill:#ffffff;stroke:none;stroke-width:0.0999996;stroke-dasharray:none;stroke-opacity:1"
       id="rect1"
       width="54.999996"
       height="54.999996"
       x="77.5"
       y="121"
       inkscape:export-filename="logo1_48x.png"
       inkscape:export-xdpi="22.167274"
       inkscape:export-ydpi="22.167274" />
  </g>
  <g
     inkscape:groupmode="layer"
     id="layer2"
     inkscape:label="Cyan-500"
     style="display:none;opacity:1">
    <g
       id="g28"
       featurekey="dZL0lc-0"
       transform="matrix(0.58244704,0,0,0.58244704,75.877476,119.37722)"
       fill="#64d7d6"
       inkscape:label="SvgjsG2195"
       style="fill:#06b6d4;fill-opacity:1"
       inkscape:export-filename="public/icon_128x.png"
       inkscape:export-xdpi="59.112732"
       inkscape:export-ydpi="59.112732">
      <path
         fill-rule="evenodd"
         clip-rule="evenodd"
         d="m 37.854,26.105 c 4.605496,-0.652584 9.428,0.088 13.873,1.506 9.941,3.172 12.788,12.875 6.951,21.616 C 52.836,57.975 39.604,61.906 29.971,57.756 27.1045,56.521 25.66559,55.609029 24.172193,53.810145 22.797966,52.154809 22.310425,50.443558 21.585,47.897093 21.232577,46.659978 21.002245,42.8318 21.589,40.404 c 0.399243,-1.651938 1.258589,-3.21453 2.326,-4.537 2.674537,-3.313622 6.22527,-5.913899 9.882,-8.096 1.255388,-0.749134 2.609542,-1.4609 4.057,-1.666 z"
         id="path14"
         sodipodi:nodetypes="acccasaaaa"
         inkscape:label="path1"
         style="display:inline;fill:#06b6d4;fill-opacity:1" />
      <path
         fill-rule="evenodd"
         clip-rule="evenodd"
         d="m 67.94,49.245 c 6.422,0.004 9.633,4.886 6.659,10.807 -3.024,6.023 -8.019,9.765 -15.011,9.989 -6.783,0.217 -9.113,-4.218 -6.999,-10.354 1.981,-5.75 9.281,-10.445 15.351,-10.442 z"
         id="path15"
         style="display:inline;fill:#06b6d4;fill-opacity:1;stroke-width:0.999232;stroke-dasharray:none" />
      <path
         fill-rule="evenodd"
         clip-rule="evenodd"
         d="m 74.326,45.595 c -5.795,-0.04 -10.959,-5.349 -10.944,-11.251 0.01,-4.357 3.075,-7.577 7.186,-7.55 5.739,0.039 11.674,6.009 11.645,11.717 -0.022,4.395 -3.055,7.116 -7.887,7.084 z"
         id="path16"
         style="display:inline;fill:#06b6d4;fill-opacity:1" />
      <path
         fill-rule="evenodd"
         clip-rule="evenodd"
         d="m 28.151,72.945 c -2.54,-1.036 -4.417,-3.082 -4.375,-6.015 0.041,-2.863 2.01,-4.553 4.556,-5.425 4.971,-1.703 9.95,-1.554 14.65,0.823 2.614,1.323 4.723,3.389 4.095,6.751 -0.636,3.414 -3.49,4.53 -6.349,5.351 -1.381,0.397 -2.913,0.271 -5.0675,0.1715 C 33.506,74.502 30.719,73.992 28.151,72.945 Z"
         id="path17"
         sodipodi:nodetypes="cscccccc"
         style="display:inline;fill:#06b6d4;fill-opacity:1" />
      <path
         fill-rule="evenodd"
         clip-rule="evenodd"
         d="m 88.205,52.5 c 5.772,-0.035 8.319,4.093 5.863,8.747 -2.173,4.12 -7.616,6.623 -11.453,5.267 -3.709,-1.311 -5.093,-4.566 -3.344,-8.096 1.913,-3.859 5.203,-5.632 8.934,-5.918 z"
         id="path18"
         style="display:inline;fill:#06b6d4;fill-opacity:1" />
      <path
         fill-rule="evenodd"
         clip-rule="evenodd"
         d="m 46.266,87.77 c -1.96108,0.110428 -4.112,-0.884 -5.658,-1.646 -3.387,-1.671 -3.609,-5.446 -0.465,-7.569 3.783,-2.554 7.987,-2.739 12.106,-1.13 3.565,1.392 4.038,5.329 0.839,7.496 -2.075,1.404 -4.361564,2.710453 -6.822,2.849 z"
         id="path19"
         sodipodi:nodetypes="acccca"
         style="display:inline;fill:#06b6d4;fill-opacity:1" />
      <path
         fill-rule="evenodd"
         clip-rule="evenodd"
         d="m 57.453,27.11 c -2.933064,-0.07765 -5.713,-1.424 -8.362,-2.749 -2.986,-1.494 -2.787,-4.063 0.091,-5.745 3.72,-2.173 12.656,-1.704 16.048,0.843 2.476,1.857 2.406,4.397 -0.435,5.661 -2.147,0.955 -4.807252,2.057104 -7.342,1.99 z"
         id="path20"
         sodipodi:nodetypes="acccca"
         style="display:inline;fill:#06b6d4;fill-opacity:1" />
      <path
         fill-rule="evenodd"
         clip-rule="evenodd"
         d="m 19.711,62.862 c -2.602,1.095 -4.785,-0.288 -6.373,-2.243 -2.035,-2.506 -3.362,-5.387 -2.407,-8.749 1.258,-4.428 5.612,-5.746 8.71,-2.37 1.798,1.958 2.784,4.662 3.1875,7.414 0.4035,2.752 -0.6635,4.914 -3.1175,5.948 z"
         id="path21"
         sodipodi:nodetypes="cccccc"
         style="display:inline;fill:#06b6d4;fill-opacity:1" />
      <path
         fill-rule="evenodd"
         clip-rule="evenodd"
         d="m 75.446,15.578 c 2.197796,-0.196793 4.353,1.767 5.882,3.037 0.915,0.759 1.645,2.734 1.288,3.751 -0.365,1.041 -2.194,2.245 -3.323,2.188 -1.999,-0.1 -4.194,-0.742 -5.84,-1.851 -1.147,-0.772 -2.348,-2.96 -2.011,-4.048 0.386,-1.244 2.327458,-2.926881 4.004,-3.077 z"
         id="path22"
         sodipodi:nodetypes="accccca"
         style="display:inline;fill:#06b6d4;fill-opacity:1" />
      <path
         fill-rule="evenodd"
         clip-rule="evenodd"
         d="m 16.589,70.245 c -0.14665,1.486277 -1.612,3.255 -2.71,3.568 -1.08,0.307 -3.025,-0.646 -3.847,-1.653 -1.048,-1.285 -1.825,-3.18 -1.823,-4.81 0.002,-1.304 1.066,-3.109 2.191,-3.732 0.768,-0.426 2.856,0.455 3.629,1.366 1.136,1.341 2.751501,3.320162 2.56,5.261 z"
         id="path23"
         sodipodi:nodetypes="accccca"
         style="display:inline;fill:#06b6d4;fill-opacity:1" />
      <path
         fill-rule="evenodd"
         clip-rule="evenodd"
         d="M 45.207,17.008 C 43.911472,16.858073 41.941021,16.206781 41.909,14.903 41.87571,13.547606 44,12.86 45.226,12.549 c 1.657,-0.42 3.54,-0.396 5.239,-0.088 1.749,0.317 2.037,1.67 0.427,2.551 -1.597,0.874 -3.68991,2.226885 -5.685,1.996 z"
         id="path24"
         sodipodi:nodetypes="aaccca"
         style="display:inline;fill:#06b6d4;fill-opacity:1" />
      <path
         fill-rule="evenodd"
         clip-rule="evenodd"
         d="m 10.555,41.71 c 0.282058,2.432005 -2.276,6.416 -3.938,6.2 -0.639,-0.083 -1.572,-1.251 -1.612,-1.966 -0.132,-2.368 2.467,-5.919 4.086,-5.665 0.689,0.109 1.385384,0.753141 1.464,1.431 z"
         id="path25"
         sodipodi:nodetypes="ascca"
         style="display:inline;fill:#06b6d4;fill-opacity:1" />
      <path
         fill-rule="evenodd"
         clip-rule="evenodd"
         d="m 19.22,28.43 c -0.965058,-0.290071 -1.361134,-1.998596 -0.889719,-2.88924 0.30196,-0.570492 0.576917,-0.969064 1.063719,-1.43676 1.454946,-1.397842 3.825917,-3.275316 5.596,-2.307 0.488835,0.267415 0.489127,1.121973 0.297,1.645 -0.902734,2.457512 -3.559739,5.741616 -6.067,4.988 z"
         id="path26"
         sodipodi:nodetypes="assaaa"
         style="display:inline;fill:#06b6d4;fill-opacity:1" />
      <path
         fill-rule="evenodd"
         clip-rule="evenodd"
         d="m 37.936808,26.188303 c 0,0 -2.653402,1.260098 -4.058237,1.666006 -1.287336,0.371948 -2.922992,0.821997 -3.959974,0.691994 -1.139,-0.140957 -2.69738,-0.342692 -3.203984,-1.390993 -0.409371,-0.847116 0.117951,-2.112999 0.727998,-2.727012 3.468981,-3.494996 7.694953,-5.515987 12.688927,-5.433988 2.329987,0.03794 2.721404,2.075938 1.558981,3.692988 -0.998875,1.389539 -2.376843,2.815896 -3.754982,3.501005 -3.79e-4,1.89e-4 0.0013,0 0.0013,0 z"
         id="path27"
         sodipodi:nodetypes="cacaccsscc"
         style="display:inline;opacity:1;fill:#06b6d4;fill-opacity:1;stroke-width:1"
         inkscape:label="path14" />
      <path
         fill-rule="evenodd"
         clip-rule="evenodd"
         d="m 21.56156,40.549111 c -0.933468,1.110095 -2.313999,2.109994 -3.474,2.619997 -1.036,0.456008 -2.631,0.829999 -3.42,0.339001 -0.834001,-0.520991 -1.51,-2.166995 -1.378,-3.209991 0.498,-3.950007 2.572999,-7.114003 5.903,-9.304005 2.275999,-1.498007 4.431,-0.314003 4.684,2.431998 0.073,0.802991 0.211486,1.747635 0.01099,2.586003 -0.395289,1.652886 -1.232209,3.236255 -2.32599,4.536997 z"
         id="path28"
         sodipodi:nodetypes="acccccaa"
         style="display:inline;opacity:1;fill:#06b6d4;fill-opacity:1;stroke-width:1"
         inkscape:label="path15" />
    </g>
  </g>
</svg>
